<?xml version="1.0" encoding="UTF-8"?>
<!DOCTYPE svg PUBLIC "-//W3C//DTD SVG 1.1//EN" "http://www.w3.org/Graphics/SVG/1.1/DTD/svg11.dtd">
<!-- Creator: CorelDRAW 2020 (64 Bit) -->
<svg xmlns="http://www.w3.org/2000/svg" xml:space="preserve" width="464.583mm" height="433.915mm" version="1.1" style="shape-rendering:geometricPrecision; text-rendering:geometricPrecision; image-rendering:optimizeQuality; fill-rule:evenodd; clip-rule:evenodd"
viewBox="0 0 23547.6 21993.17"
 xmlns:xlink="http://www.w3.org/1999/xlink"
 xmlns:xodm="http://www.corel.com/coreldraw/odm/2003">
 <defs>
  <style type="text/css">
   <![CDATA[
    .fil4 {fill:#1F1A26}
    .fil2 {fill:#26FF47}
    .fil6 {fill:#26FF47;fill-rule:nonzero}
    .fil5 {fill:#D9D9D9;fill-rule:nonzero}
    .fil0 {fill:url(#id0)}
    .fil1 {fill:url(#id1)}
    .fil3 {fill:url(#id2)}
   ]]>
  </style>
  <linearGradient id="id0" gradientUnits="userSpaceOnUse" x1="9811.51" y1="7644.15" x2="19623" y2="7644.15">
   <stop offset="0" style="stop-opacity:1; stop-color:#1F1A26"/>
   <stop offset="1" style="stop-opacity:1; stop-color:#26FF47"/>
  </linearGradient>
  <linearGradient id="id1" gradientUnits="userSpaceOnUse" x1="14133.51" y1="7644.19" x2="18746.72" y2="7644.18">
   <stop offset="0" style="stop-opacity:1; stop-color:#1F1A26"/>
   <stop offset="0.411765" style="stop-opacity:1; stop-color:#228C36"/>
   <stop offset="1" style="stop-opacity:1; stop-color:#26FF47"/>
  </linearGradient>
  <linearGradient id="id2" gradientUnits="userSpaceOnUse" xlink:href="#id0" x1="8496.42" y1="10459.32" x2="6715.32" y2="10957.22">
  </linearGradient>
 </defs>
 <g id="Camada_x0020_1">
  <metadata id="CorelCorpID_0Corel-Layer"/>
  <g id="_2617004776976">
   <path class="fil0" d="M22497.53 11773.78c351.33,-607.34 623.61,-1266.13 802.79,-1962.3 161.43,-627.19 247.28,-1284.71 247.28,-1962.29 0,-677.58 -85.86,-1335.11 -247.28,-1962.3 -179.18,-696.17 -451.47,-1354.95 -802.79,-1962.3 -427.27,-738.61 -971.44,-1401.15 -1607.21,-1962.29 -1380.01,-1218.03 -3191.6,-1958.37 -5176.05,-1962.3l-15.87 0 -15.86 0 -1945.46 0 -3926.55 0 -1945.46 0c584.67,1.16 1154.34,66.24 1702.39,188.63 786.5,175.65 1528.46,469.31 2206.34,861.44 453.01,262.05 877.39,568.07 1267.31,912.23l2645.38 0c3.97,-0.01 7.93,-0.02 11.9,-0.02 0.24,0 0.48,0 0.72,0 3.73,0 7.45,0.01 11.18,0.02 1738.73,3.44 3300.54,760.67 4376.02,1962.29 506.77,566.22 905.57,1231.1 1164,1962.3 216.94,613.77 334.98,1274.25 334.98,1962.3 0,688.05 -118.04,1348.53 -334.98,1962.29 -258.44,731.19 -657.23,1396.08 -1164,1962.3 -1075.48,1201.62 -2637.29,1958.86 -4376.02,1962.3 -3.72,0.01 -7.44,0.01 -11.17,0l-0.01 0.01 -0.72 0c-3.97,0 -7.93,-0.01 -11.9,-0.01 -776.79,-1.54 -1518.27,-153.53 -2196.85,-428.37 -143.81,148.58 -293.45,291.49 -448.54,428.37 -389.93,344.16 -814.31,650.18 -1267.31,912.23 677.88,392.13 1419.85,685.8 2206.34,861.44 548.05,122.39 1117.72,187.47 1702.39,188.63l15.86 0 15.87 0c1984.44,-3.93 3796.04,-744.27 5176.05,-1962.29 635.77,-561.15 1179.94,-1223.68 1607.21,-1962.3z"/>
   <path class="fil1" d="M16927.54 11577.47c921.66,-303.68 1692.38,-939.59 2170.43,-1765.98 333.92,-577.25 525.04,-1247.46 525.04,-1962.29 0,-714.84 -191.11,-1385.05 -525.04,-1962.3 -478.05,-826.4 -1248.77,-1462.3 -2170.43,-1765.98 -384.25,-126.61 -794.75,-195.47 -1221.2,-196.32l-7.94 0 -7.93 0c-335.64,0.66 -661.39,43.46 -972.25,123.39 317.69,572.85 565.79,1189.62 732.91,1838.91l243.31 0c1.32,-0.01 2.65,-0.01 3.97,-0.01 1.32,0 2.65,0 3.97,0.01 1081.69,2.14 1957.94,879.49 1958.33,1961.59l0 0.71c0,1082.42 -876.41,1960.15 -1958.33,1962.29 -1.32,0.01 -2.65,0.01 -3.97,0.01 -1.32,0 -2.65,0 -3.97,-0.01l-243.31 0c-167.12,649.29 -415.22,1266.06 -732.91,1838.91 310.86,79.92 636.6,122.72 972.25,123.38l7.93 0 7.94 0c426.45,-0.84 836.95,-69.7 1221.2,-196.31zm733.17 -3728.28c0,63 -0.59,125.86 -1.78,188.59 1.18,-62.72 1.77,-125.58 1.77,-188.59l0.01 0z"/>
   <path class="fil2" d="M5640.46 2390.67c1411,-571.51 3006.49,-571.51 4417.49,0 634.46,256.98 1213.92,621.36 1715.85,1070.6 162.86,145.76 317.56,300.46 463.32,463.32 292.76,327.1 549.48,687.12 763.92,1073.83 812.8,1465.75 960.92,3226.32 400.09,4813.06 -109.14,308.79 -243.32,605.76 -400.09,888.47 -214.45,386.71 -471.16,746.73 -763.92,1073.83 -145.76,162.86 -300.46,317.56 -463.32,463.32 -162.86,-145.76 -317.56,-300.46 -463.32,-463.32 -292.76,-327.09 -549.48,-687.12 -763.92,-1073.83 -156.77,-282.71 -290.94,-579.67 -400.09,-888.47 -215.79,-610.53 -333.73,-1267.29 -334.97,-1951.43 -0.01,-3.62 -0.01,-7.24 -0.01,-10.86l0.01 0 0 -0.17 0 -0.17 0 -0.17 0 -0.17 0 -0.17 0 -0.17 0 -0.17 0 -0.17 0 -0.17 0 -0.18 0 -0.17 0 -0.17 0 -0.17 0 -0.18 0 -0.17 0 -0.68 0 -0.04 0 -0.08 0 -0.06 0 -0.02 0 -0.08 0 -0.08 0 -0.08 0 -0.08 0 -0.02 0 -0.06 0 -0.08 0 -0.04 0 -0.04 0 -0.08 0 -0.05 0 -0.17 0 -0.17c0,-2.16 -0.01,-4.29 0.01,-6.45 -0.72,-668.23 -68.25,-1320.81 -196.26,-1951.43 -111.01,-546.85 -267.49,-1077.18 -465.34,-1586.88 -46.5,-119.79 -138.45,-202.7 -262.4,-236.57 -657.08,-179.56 -1357.84,-185.32 -2018.48,-15.46 317.69,572.85 565.79,1189.62 732.9,1838.91 0,0 3.84,14.95 3.84,14.95 158.07,619.22 242.51,1267.89 243.44,1936.13 0.01,3.74 0.01,7.48 -0.01,11.22l0.02 0c0,3.74 0,7.48 -0.01,11.22 0.93,668.24 85.37,1316.91 243.44,1936.13 1.27,4.98 2.55,9.97 3.83,14.95 167.12,649.29 415.22,1266.07 732.91,1838.91 22.94,41.36 46.24,82.49 69.89,123.38 18,31.13 36.22,62.12 54.64,92.97 312.04,522.71 683.12,1006.1 1104.04,1440.95 143.81,148.58 293.45,291.49 448.54,428.37 389.93,344.16 814.31,650.18 1267.31,912.23 453.01,-262.05 877.39,-568.07 1267.31,-912.23 155.09,-136.88 304.72,-279.79 448.54,-428.37 445.76,-460.53 835.63,-975.48 1158.68,-1533.93 23.65,-40.9 46.96,-82.03 69.89,-123.38 317.69,-572.85 565.79,-1189.62 732.91,-1838.91 1.28,-4.98 2.56,-9.96 3.83,-14.95 158.95,-622.69 243.45,-1275.15 243.45,-1947.35 0,-672.2 -84.5,-1324.67 -243.45,-1947.35 -1.27,-4.98 -2.55,-9.96 -3.83,-14.95 -167.12,-649.29 -415.22,-1266.06 -732.91,-1838.91 -22.94,-41.36 -46.24,-82.49 -69.89,-123.39 -323.04,-558.45 -712.91,-1073.4 -1158.68,-1533.92 -143.81,-148.58 -293.45,-291.49 -448.54,-428.37 -389.93,-344.16 -814.31,-650.18 -1267.31,-912.23 -677.88,-392.13 -1419.85,-685.79 -2206.34,-861.44 -548.05,-122.39 -1117.72,-187.47 -1702.39,-188.63l-15.86 0 -15.87 0c-584.67,1.16 -1154.34,66.24 -1702.38,188.63 -786.5,175.65 -1528.47,469.31 -2206.34,861.44 -453.01,262.05 -877.39,568.07 -1267.32,912.23 -155.08,136.88 -304.72,279.79 -448.54,428.37 -445.76,460.52 -835.63,975.47 -1158.68,1533.92 -23.65,40.9 -46.95,82.03 -69.89,123.39 -317.69,572.85 -565.79,1189.62 -732.91,1838.91 -1.28,4.98 -2.56,9.96 -3.83,14.95 -158.95,622.69 -243.45,1275.15 -243.45,1947.35 0,672.2 84.5,1324.66 243.45,1947.35 1.27,4.98 2.55,9.97 3.83,14.95 167.12,649.29 415.22,1266.07 732.91,1838.91 22.94,41.36 46.24,82.49 69.89,123.38 323.05,558.45 712.92,1073.4 1158.68,1533.93 143.82,148.58 293.45,291.49 448.54,428.37 389.93,344.16 814.31,650.18 1267.32,912.23 677.88,392.13 1419.85,685.8 2206.34,861.44 564.02,125.96 1140.38,188.63 1718.25,188.63l884.3 0c164.4,0 304.63,-95.39 365.03,-248.29 60.39,-152.9 23.18,-318.38 -96.85,-430.71 -374.72,-350.68 -721.29,-730.04 -1039.82,-1136.06 -74.3,-94.71 -176.38,-146.33 -296.71,-150.03 -694.62,-21.36 -1379.36,-164.19 -2024.69,-425.57 -634.46,-256.98 -1213.92,-621.36 -1715.85,-1070.6 -162.86,-145.76 -317.56,-300.46 -463.33,-463.32 -292.75,-327.09 -549.48,-687.12 -763.92,-1073.83 -156.77,-282.71 -290.95,-579.68 -400.09,-888.47 -216.43,-612.32 -334.42,-1271.13 -334.98,-1957.44 0,-1.62 0,-3.23 0,-4.86l0 -4.86 0 -0.06 0 -0.09 0 -0.09 0 -0.09 0 -0.09 0 -0.08 0 -0.09c0.63,-686.09 118.61,-1344.72 334.98,-1956.86 109.14,-308.79 243.32,-605.76 400.09,-888.47 214.44,-386.71 471.16,-746.73 763.92,-1073.83 145.77,-162.86 300.46,-317.56 463.33,-463.32 501.93,-449.24 1081.39,-813.62 1715.85,-1070.6zm-3678.16 5453.42l0 0.09 0 0.09 0 0.06 0 -0.23zm7849.2 2.51l0 -0.07 0 -0.06 0 -0.02 0 -0.08 0 -0.07 0 -0.08 0 -0.08 0 -0.02 0 -0.06 0 -0.08 0 -0.04 0 0.64zm-0.01 -3.31l-0.03 -4.8c0.03,1.6 0.03,3.2 0.03,4.8zm0.01 16.76c-0.03,23.69 -0.06,47.92 0,0z"/>
   <path class="fil3" d="M5151.85 10699.95c414.26,392.1 913.95,694.88 1468.22,877.51 81.83,26.96 164.85,51.3 248.96,72.93 310.85,79.92 636.6,122.72 972.24,123.38l7.94 0 7.93 0c335.64,-0.66 661.39,-43.46 972.25,-123.38 -317.69,-572.85 -565.79,-1189.62 -732.91,-1838.91 -1191.59,0 -2202.45,-644.54 -2209.58,-1951.43 0,-3.62 -0.01,-7.24 -0.01,-10.86 0,-3.62 0.01,-7.25 0.01,-10.87 1.42,-1357.52 0.69,-672.14 0.04,0 5.4,-996.42 753.46,-1817.03 1718.83,-1936.48 -1.27,-4.98 -2.55,-9.96 -3.84,-14.95 -167.11,-649.29 -415.22,-1266.06 -732.9,-1838.91 -84.11,21.62 -167.13,45.97 -248.96,72.93 -554.27,182.62 -1053.95,485.4 -1468.22,877.51 -274.59,259.9 -511.65,559.05 -702.21,888.47 -333.04,575.75 -524.04,1243.95 -525.03,1956.68 0,1.88 0,3.74 -0.01,5.62l0.01 0c0,1.87 0,3.74 0,5.61 0.99,712.73 191.99,1380.94 525.03,1956.68 190.56,329.42 427.62,628.57 702.21,888.47z"/>
   <path class="fil2" d="M5886.9 7849.19c0,-3.62 0.01,-7.25 0.01,-10.87 1.42,-1357.52 0.69,-672.14 0.04,0 5.4,-996.42 754.09,-1817.03 1719.45,-1936.48 -66.68,-678.79 -389.42,-1279.95 -711.35,-1860.45 -84.11,21.62 -193.15,52.56 -274.97,79.53 -554.27,182.62 -1053.95,485.4 -1468.22,877.51 -274.59,259.9 -511.65,559.05 -702.21,888.47 -333.04,575.75 -524.04,1243.95 -525.03,1956.68 0,1.88 0,3.74 -0.01,5.62l0.01 0 1962.29 0z"/>
   <circle class="fil4" cx="9469.76" cy="10677.9" r="519.71"/>
   <circle class="fil4" cx="14077.85" cy="10677.9" r="519.71"/>
   <g>
    <path class="fil5" d="M3457.57 19381.82c107.13,-187.48 264,-340.53 470.61,-459.13 206.61,-118.61 441.93,-177.92 705.93,-177.92 283.13,0 537.57,66.96 763.32,200.87 225.74,133.92 403.66,322.36 533.75,565.32 130.09,242.97 195.14,525.15 195.14,846.54 0,317.57 -65.05,600.71 -195.14,849.41 -130.08,248.7 -308.96,441.92 -536.62,579.66 -227.65,137.74 -481.14,206.61 -760.44,206.61 -271.66,0 -509.84,-59.31 -714.54,-177.92 -204.7,-118.61 -358.7,-269.75 -462.01,-453.4l0 579.66 -522.27 0 0 -4247.05 522.27 0 0 1687.34zm2135 975.68c0,-237.22 -47.83,-443.84 -143.48,-619.84 -95.66,-176.01 -224.79,-309.92 -387.4,-401.75 -162.61,-91.82 -341.48,-137.74 -536.62,-137.74 -191.31,0 -368.27,46.87 -530.88,140.61 -162.61,93.74 -292.7,229.57 -390.27,407.49 -97.57,177.92 -146.35,383.57 -146.35,616.97 0,237.22 48.78,444.79 146.35,622.71 97.57,177.92 227.66,313.75 390.27,407.49 162.61,93.74 339.57,140.61 530.88,140.61 195.14,0 374.01,-46.87 536.62,-140.61 162.61,-93.74 291.74,-229.56 387.4,-407.49 95.65,-177.92 143.48,-387.4 143.48,-628.45z"/>
    <path class="fil5" d="M8852.5 21993.18c-294.61,0 -561.49,-66.96 -800.62,-200.88 -239.13,-133.91 -426.62,-324.26 -562.45,-571.05 -135.83,-246.79 -203.75,-532.8 -203.75,-858.02 0,-321.4 69.83,-605.49 209.49,-852.29 139.65,-246.79 330,-436.18 571.05,-568.18 241.06,-132.01 510.8,-198 809.24,-198 298.44,0 568.18,66 809.23,198 241.04,132.01 431.4,320.44 571.06,565.32 139.65,244.88 209.48,529.93 209.48,855.16 0,325.22 -71.74,611.23 -215.22,858.02 -143.48,246.79 -337.66,437.14 -582.53,571.05 -244.88,133.92 -516.53,200.88 -814.98,200.88zm0 -459.14c187.49,0 363.49,-44.01 528.02,-132.01 164.52,-88 297.48,-220 398.87,-396.01 101.4,-176.01 152.09,-390.27 152.09,-642.79 0,-252.53 -49.74,-466.8 -149.22,-642.8 -99.48,-176.01 -229.57,-307.05 -390.27,-393.14 -160.7,-86.08 -334.79,-129.13 -522.27,-129.13 -191.31,0 -366.36,43.05 -525.15,129.13 -158.79,86.09 -286.01,217.14 -381.66,393.14 -95.65,176 -143.48,390.27 -143.48,642.8 0,256.35 46.87,472.53 140.62,648.53 93.74,176.01 219.05,307.05 375.92,393.14 156.87,86.09 329.05,129.13 516.53,129.13z"/>
    <path class="fil5" d="M17157.24 20248.45c0,99.48 -5.74,204.7 -17.22,315.66l-2513.8 0c19.13,309.92 125.31,551.92 318.53,726.01 193.22,174.09 427.57,261.14 703.06,261.14 225.74,0 414.18,-52.61 565.32,-157.83 151.13,-105.22 257.31,-245.83 318.53,-421.83l562.45 0c-84.17,302.27 -252.53,548.1 -505.06,737.49 -252.52,189.4 -566.27,284.09 -941.23,284.09 -298.44,0 -565.32,-66.96 -800.63,-200.88 -235.31,-133.91 -419.92,-324.26 -553.84,-571.05 -133.92,-246.79 -200.88,-532.8 -200.88,-858.02 0,-325.23 65.05,-610.28 195.14,-855.16 130.08,-244.87 312.79,-433.31 548.1,-565.32 235.31,-132.01 506.01,-198 812.1,-198 298.44,0 562.45,65.04 792.02,195.14 229.57,130.08 406.53,308.96 530.88,536.62 124.35,227.66 186.53,484.96 186.53,771.93zm-539.49 -109.04c0,-198.96 -43.99,-370.18 -132.01,-513.67 -88,-143.48 -207.57,-252.53 -358.7,-327.13 -151.13,-74.61 -318.53,-111.91 -502.18,-111.91 -264.01,0 -488.79,84.17 -674.37,252.52 -185.57,168.36 -291.74,401.75 -318.53,700.19l1985.78 0z"/>
    <path class="fil5" d="M10585.77 20357.49c0,-321.4 65.04,-603.58 195.13,-846.54 130.09,-242.96 308.96,-431.4 536.62,-565.32 227.66,-133.91 483.05,-200.87 766.19,-200.87 244.88,0 472.54,56.43 682.97,169.3 210.44,112.88 371.14,261.14 482.1,444.8l0 -1664.38 528.01 0 0 4247.05 -528.01 0 0 -591.14c-103.31,187.48 -256.35,341.48 -459.14,462.01 -202.78,120.53 -440.01,180.78 -711.67,180.78 -279.31,0 -532.79,-68.87 -760.44,-206.61 -227.66,-137.75 -406.53,-330.97 -536.62,-579.66 -130.09,-248.7 -195.13,-531.84 -195.13,-849.41zm2663.02 5.74c0,-237.22 -47.83,-443.84 -143.48,-619.84 -95.65,-176 -224.8,-310.87 -387.4,-404.62 -162.61,-93.74 -341.48,-140.61 -536.62,-140.61 -195.13,0 -373.05,45.92 -533.75,137.74 -160.7,91.83 -288.88,225.75 -384.53,401.75 -95.65,176 -143.48,382.61 -143.48,619.84 0,241.04 47.83,450.53 143.48,628.45 95.65,177.92 223.83,313.75 384.53,407.49 160.7,93.74 338.62,140.61 533.75,140.61 195.14,0 374.01,-46.87 536.62,-140.61 162.61,-93.74 291.75,-229.56 387.4,-407.49 95.65,-177.92 143.48,-385.48 143.48,-622.71z"/>
    <path class="fil6" d="M20267.95 21975.97c-99.48,0 -183.66,-34.44 -252.53,-103.31 -68.87,-68.88 -103.31,-153.05 -103.31,-252.53 0,-99.48 34.44,-183.65 103.31,-252.53 68.87,-68.88 153.05,-103.31 252.53,-103.31 95.65,0 176.96,34.43 243.92,103.31 66.96,68.87 100.43,153.04 100.43,252.53 0,99.48 -33.48,183.65 -100.43,252.53 -66.96,68.87 -148.27,103.31 -243.92,103.31z"/>
    <polygon class="fil6" points="20526.22,17941.27 20463.09,20810.9 20026.9,20810.9 19963.77,17941.27 "/>
    <polygon class="fil5" points="19114.35,21941.53 18368.24,20770.72 17650.83,21941.53 17105.6,21941.53 18121.45,20380.45 17105.6,18796.42 17696.74,18796.42 18442.85,19961.48 19154.52,18796.42 19699.74,18796.42 18689.64,20351.75 19705.49,21941.53 "/>
    <polygon class="fil5" points="6964.27,18796.42 6964.27,21941.53 6442,21941.53 6442,18796.42 "/>
    <path class="fil6" d="M6711.74 18285.62c-99.48,0 -183.65,-34.44 -252.53,-103.31 -68.87,-68.87 -103.3,-153.04 -103.3,-252.53 0,-99.48 34.43,-183.65 103.3,-252.53 68.88,-68.88 153.05,-103.31 252.53,-103.31 95.65,0 176.96,34.43 243.91,103.31 66.96,68.87 100.44,153.04 100.44,252.53 0,99.48 -33.48,183.65 -100.44,252.53 -66.96,68.87 -148.26,103.31 -243.91,103.31z"/>
   </g>
  </g>
 </g>
</svg>
