<?xml version="1.0" encoding="UTF-8"?>
<!DOCTYPE svg PUBLIC "-//W3C//DTD SVG 1.1//EN" "http://www.w3.org/Graphics/SVG/1.1/DTD/svg11.dtd">
<!-- Creator: CorelDRAW 2020 (64 Bit) -->
<svg xmlns="http://www.w3.org/2000/svg" xml:space="preserve" width="464.583mm" height="309.721mm" version="1.1" style="shape-rendering:geometricPrecision; text-rendering:geometricPrecision; image-rendering:optimizeQuality; fill-rule:evenodd; clip-rule:evenodd"
viewBox="0 0 23547.6 15698.37"
 xmlns:xlink="http://www.w3.org/1999/xlink"
 xmlns:xodm="http://www.corel.com/coreldraw/odm/2003">
 <defs>
  <style type="text/css">
   <![CDATA[
    .fil4 {fill:#1F1A26}
    .fil2 {fill:#26FF47}
    .fil0 {fill:url(#id0)}
    .fil1 {fill:url(#id1)}
    .fil3 {fill:url(#id2)}
   ]]>
  </style>
  <linearGradient id="id0" gradientUnits="userSpaceOnUse" x1="9811.51" y1="7644.15" x2="19623" y2="7644.15">
   <stop offset="0" style="stop-opacity:1; stop-color:#1F1A26"/>
   <stop offset="1" style="stop-opacity:1; stop-color:#26FF47"/>
  </linearGradient>
  <linearGradient id="id1" gradientUnits="userSpaceOnUse" x1="14133.51" y1="7644.19" x2="18746.72" y2="7644.18">
   <stop offset="0" style="stop-opacity:1; stop-color:#1F1A26"/>
   <stop offset="0.411765" style="stop-opacity:1; stop-color:#228C36"/>
   <stop offset="1" style="stop-opacity:1; stop-color:#26FF47"/>
  </linearGradient>
  <linearGradient id="id2" gradientUnits="userSpaceOnUse" xlink:href="#id0" x1="8496.42" y1="10459.32" x2="6715.32" y2="10957.22">
  </linearGradient>
 </defs>
 <g id="Camada_x0020_1">
  <metadata id="CorelCorpID_0Corel-Layer"/>
  <path class="fil0" d="M22497.53 11773.78c351.33,-607.34 623.61,-1266.13 802.79,-1962.3 161.43,-627.19 247.28,-1284.71 247.28,-1962.29 0,-677.58 -85.86,-1335.11 -247.28,-1962.3 -179.18,-696.17 -451.47,-1354.95 -802.79,-1962.3 -427.27,-738.61 -971.44,-1401.15 -1607.21,-1962.29 -1380.01,-1218.03 -3191.6,-1958.37 -5176.05,-1962.3l-15.87 0 -15.86 0 -1945.46 0 -3926.55 0 -1945.46 0c584.67,1.16 1154.34,66.24 1702.39,188.63 786.5,175.65 1528.46,469.31 2206.34,861.44 453.01,262.05 877.39,568.07 1267.31,912.23l2645.38 0c3.97,-0.01 7.93,-0.02 11.9,-0.02 0.24,0 0.48,0 0.72,0 3.73,0 7.45,0.01 11.18,0.02 1738.73,3.44 3300.54,760.67 4376.02,1962.29 506.77,566.22 905.57,1231.1 1164,1962.3 216.94,613.77 334.98,1274.25 334.98,1962.3 0,688.05 -118.04,1348.53 -334.98,1962.29 -258.44,731.19 -657.23,1396.08 -1164,1962.3 -1075.48,1201.62 -2637.29,1958.86 -4376.02,1962.3 -3.72,0.01 -7.44,0.01 -11.17,0l-0.01 0.01 -0.72 0c-3.97,0 -7.93,-0.01 -11.9,-0.01 -776.79,-1.54 -1518.27,-153.53 -2196.85,-428.37 -143.81,148.58 -293.45,291.49 -448.54,428.37 -389.93,344.16 -814.31,650.18 -1267.31,912.23 677.88,392.13 1419.85,685.8 2206.34,861.44 548.05,122.39 1117.72,187.47 1702.39,188.63l15.86 0 15.87 0c1984.44,-3.93 3796.04,-744.27 5176.05,-1962.29 635.77,-561.15 1179.94,-1223.68 1607.21,-1962.3z"/>
  <path class="fil1" d="M16927.54 11577.47c921.66,-303.68 1692.38,-939.59 2170.43,-1765.98 333.92,-577.25 525.04,-1247.46 525.04,-1962.29 0,-714.84 -191.11,-1385.05 -525.04,-1962.3 -478.05,-826.4 -1248.77,-1462.3 -2170.43,-1765.98 -384.25,-126.61 -794.75,-195.47 -1221.2,-196.32l-7.94 0 -7.93 0c-335.64,0.66 -661.39,43.46 -972.25,123.39 317.69,572.85 565.79,1189.62 732.91,1838.91l243.31 0c1.32,-0.01 2.65,-0.01 3.97,-0.01 1.32,0 2.65,0 3.97,0.01 1081.69,2.14 1957.94,879.49 1958.33,1961.59l0 0.71c0,1082.42 -876.41,1960.15 -1958.33,1962.29 -1.32,0.01 -2.65,0.01 -3.97,0.01 -1.32,0 -2.65,0 -3.97,-0.01l-243.31 0c-167.12,649.29 -415.22,1266.06 -732.91,1838.91 310.86,79.92 636.6,122.72 972.25,123.38l7.93 0 7.94 0c426.45,-0.84 836.95,-69.7 1221.2,-196.31zm733.17 -3728.28c0,63 -0.59,125.86 -1.78,188.59 1.18,-62.72 1.77,-125.58 1.77,-188.59l0.01 0z"/>
  <path class="fil2" d="M5640.46 2390.67c1411,-571.51 3006.49,-571.51 4417.49,0 634.46,256.98 1213.92,621.36 1715.85,1070.6 162.86,145.76 317.56,300.46 463.32,463.32 292.76,327.1 549.48,687.12 763.92,1073.83 812.8,1465.75 960.92,3226.32 400.09,4813.06 -109.14,308.79 -243.32,605.76 -400.09,888.47 -214.45,386.71 -471.16,746.73 -763.92,1073.83 -145.76,162.86 -300.46,317.56 -463.32,463.32 -162.86,-145.76 -317.56,-300.46 -463.32,-463.32 -292.76,-327.09 -549.48,-687.12 -763.92,-1073.83 -156.77,-282.71 -290.94,-579.67 -400.09,-888.47 -215.79,-610.53 -333.73,-1267.29 -334.97,-1951.43 -0.01,-3.62 -0.01,-7.24 -0.01,-10.86l0.01 0 0 -0.17 0 -0.17 0 -0.17 0 -0.17 0 -0.17 0 -0.17 0 -0.17 0 -0.17 0 -0.17 0 -0.18 0 -0.17 0 -0.17 0 -0.17 0 -0.18 0 -0.17 0 -0.68 0 -0.04 0 -0.08 0 -0.06 0 -0.02 0 -0.08 0 -0.08 0 -0.08 0 -0.08 0 -0.02 0 -0.06 0 -0.08 0 -0.04 0 -0.04 0 -0.08 0 -0.05 0 -0.17 0 -0.17c0,-2.16 -0.01,-4.29 0.01,-6.45 -0.72,-668.23 -68.25,-1320.81 -196.26,-1951.43 -111.01,-546.85 -267.49,-1077.18 -465.34,-1586.88 -46.5,-119.79 -138.45,-202.7 -262.4,-236.57 -657.08,-179.56 -1357.84,-185.32 -2018.48,-15.46 317.69,572.85 565.79,1189.62 732.9,1838.91 0,0 3.84,14.95 3.84,14.95 158.07,619.22 242.51,1267.89 243.44,1936.13 0.01,3.74 0.01,7.48 -0.01,11.22l0.02 0c0,3.74 0,7.48 -0.01,11.22 0.93,668.24 85.37,1316.91 243.44,1936.13 1.27,4.98 2.55,9.97 3.83,14.95 167.12,649.29 415.22,1266.07 732.91,1838.91 22.94,41.36 46.24,82.49 69.89,123.38 18,31.13 36.22,62.12 54.64,92.97 312.04,522.71 683.12,1006.1 1104.04,1440.95 143.81,148.58 293.45,291.49 448.54,428.37 389.93,344.16 814.31,650.18 1267.31,912.23 453.01,-262.05 877.39,-568.07 1267.31,-912.23 155.09,-136.88 304.72,-279.79 448.54,-428.37 445.76,-460.53 835.63,-975.48 1158.68,-1533.93 23.65,-40.9 46.96,-82.03 69.89,-123.38 317.69,-572.85 565.79,-1189.62 732.91,-1838.91 1.28,-4.98 2.56,-9.96 3.83,-14.95 158.95,-622.69 243.45,-1275.15 243.45,-1947.35 0,-672.2 -84.5,-1324.67 -243.45,-1947.35 -1.27,-4.98 -2.55,-9.96 -3.83,-14.95 -167.12,-649.29 -415.22,-1266.06 -732.91,-1838.91 -22.94,-41.36 -46.24,-82.49 -69.89,-123.39 -323.04,-558.45 -712.91,-1073.4 -1158.68,-1533.92 -143.81,-148.58 -293.45,-291.49 -448.54,-428.37 -389.93,-344.16 -814.31,-650.18 -1267.31,-912.23 -677.88,-392.13 -1419.85,-685.79 -2206.34,-861.44 -548.05,-122.39 -1117.72,-187.47 -1702.39,-188.63l-15.86 0 -15.87 0c-584.67,1.16 -1154.34,66.24 -1702.38,188.63 -786.5,175.65 -1528.47,469.31 -2206.34,861.44 -453.01,262.05 -877.39,568.07 -1267.32,912.23 -155.08,136.88 -304.72,279.79 -448.54,428.37 -445.76,460.52 -835.63,975.47 -1158.68,1533.92 -23.65,40.9 -46.95,82.03 -69.89,123.39 -317.69,572.85 -565.79,1189.62 -732.91,1838.91 -1.28,4.98 -2.56,9.96 -3.83,14.95 -158.95,622.69 -243.45,1275.15 -243.45,1947.35 0,672.2 84.5,1324.66 243.45,1947.35 1.27,4.98 2.55,9.97 3.83,14.95 167.12,649.29 415.22,1266.07 732.91,1838.91 22.94,41.36 46.24,82.49 69.89,123.38 323.05,558.45 712.92,1073.4 1158.68,1533.93 143.82,148.58 293.45,291.49 448.54,428.37 389.93,344.16 814.31,650.18 1267.32,912.23 677.88,392.13 1419.85,685.8 2206.34,861.44 564.02,125.96 1140.38,188.63 1718.25,188.63l884.3 0c164.4,0 304.63,-95.39 365.03,-248.29 60.39,-152.9 23.18,-318.38 -96.85,-430.71 -374.72,-350.68 -721.29,-730.04 -1039.82,-1136.06 -74.3,-94.71 -176.38,-146.33 -296.71,-150.03 -694.62,-21.36 -1379.36,-164.19 -2024.69,-425.57 -634.46,-256.98 -1213.92,-621.36 -1715.85,-1070.6 -162.86,-145.76 -317.56,-300.46 -463.33,-463.32 -292.75,-327.09 -549.48,-687.12 -763.92,-1073.83 -156.77,-282.71 -290.95,-579.68 -400.09,-888.47 -216.43,-612.32 -334.42,-1271.13 -334.98,-1957.44 0,-1.62 0,-3.23 0,-4.86l0 -4.86 0 -0.06 0 -0.09 0 -0.09 0 -0.09 0 -0.09 0 -0.08 0 -0.09c0.63,-686.09 118.61,-1344.72 334.98,-1956.86 109.14,-308.79 243.32,-605.76 400.09,-888.47 214.44,-386.71 471.16,-746.73 763.92,-1073.83 145.77,-162.86 300.46,-317.56 463.33,-463.32 501.93,-449.24 1081.39,-813.62 1715.85,-1070.6zm-3678.16 5453.42l0 0.09 0 0.09 0 0.06 0 -0.23zm7849.2 2.51l0 -0.07 0 -0.06 0 -0.02 0 -0.08 0 -0.07 0 -0.08 0 -0.08 0 -0.02 0 -0.06 0 -0.08 0 -0.04 0 0.64zm-0.01 -3.31l-0.03 -4.8c0.03,1.6 0.03,3.2 0.03,4.8zm0.01 16.76c-0.03,23.69 -0.06,47.92 0,0z"/>
  <path class="fil3" d="M5151.85 10699.95c414.26,392.1 913.95,694.88 1468.22,877.51 81.83,26.96 164.85,51.3 248.96,72.93 310.85,79.92 636.6,122.72 972.24,123.38l7.94 0 7.93 0c335.64,-0.66 661.39,-43.46 972.25,-123.38 -317.69,-572.85 -565.79,-1189.62 -732.91,-1838.91 -1191.59,0 -2202.45,-644.54 -2209.58,-1951.43 0,-3.62 -0.01,-7.24 -0.01,-10.86 0,-3.62 0.01,-7.25 0.01,-10.87 1.42,-1357.52 0.69,-672.14 0.04,0 5.4,-996.42 753.46,-1817.03 1718.83,-1936.48 -1.27,-4.98 -2.55,-9.96 -3.84,-14.95 -167.11,-649.29 -415.22,-1266.06 -732.9,-1838.91 -84.11,21.62 -167.13,45.97 -248.96,72.93 -554.27,182.62 -1053.95,485.4 -1468.22,877.51 -274.59,259.9 -511.65,559.05 -702.21,888.47 -333.04,575.75 -524.04,1243.95 -525.03,1956.68 0,1.88 0,3.74 -0.01,5.62l0.01 0c0,1.87 0,3.74 0,5.61 0.99,712.73 191.99,1380.94 525.03,1956.68 190.56,329.42 427.62,628.57 702.21,888.47z"/>
  <path class="fil2" d="M5886.9 7849.19c0,-3.62 0.01,-7.25 0.01,-10.87 1.42,-1357.52 0.69,-672.14 0.04,0 5.4,-996.42 754.09,-1817.03 1719.45,-1936.48 -66.68,-678.79 -389.42,-1279.95 -711.35,-1860.45 -84.11,21.62 -193.15,52.56 -274.97,79.53 -554.27,182.62 -1053.95,485.4 -1468.22,877.51 -274.59,259.9 -511.65,559.05 -702.21,888.47 -333.04,575.75 -524.04,1243.95 -525.03,1956.68 0,1.88 0,3.74 -0.01,5.62l0.01 0 1962.29 0z"/>
  <circle class="fil4" cx="9469.76" cy="10677.9" r="519.71"/>
  <circle class="fil4" cx="14077.85" cy="10677.9" r="519.71"/>
 </g>
</svg>
