<?xml version="1.0" encoding="UTF-8"?>
<!DOCTYPE svg PUBLIC "-//W3C//DTD SVG 1.1//EN" "http://www.w3.org/Graphics/SVG/1.1/DTD/svg11.dtd">
<!-- Creator: CorelDRAW 2020 (64 Bit) -->
<svg xmlns="http://www.w3.org/2000/svg" xml:space="preserve" width="161.358mm" height="144.17mm" version="1.1" style="shape-rendering:geometricPrecision; text-rendering:geometricPrecision; image-rendering:optimizeQuality; fill-rule:evenodd; clip-rule:evenodd"
viewBox="0 0 7364.2 6579.79"
 xmlns:xlink="http://www.w3.org/1999/xlink"
 xmlns:xodm="http://www.corel.com/coreldraw/odm/2003">
 <defs>
  <style type="text/css">
   <![CDATA[
    .fil0 {fill:#332C40}
   ]]>
  </style>
 </defs>
 <g id="Camada_x0020_1">
  <metadata id="CorelCorpID_0Corel-Layer"/>
  <path class="fil0" d="M5994.98 6546.97c835.06,-675.01 1369.22,-1707.48 1369.22,-2864.87 0,-2033.57 -1648.53,-3682.1 -3682.1,-3682.1 -2033.57,0 -3682.1,1648.53 -3682.1,3682.1 0,1176.2 551.51,2223.58 1410.02,2897.69 510.01,-723.36 1351.92,-1195.93 2304.27,-1195.93 937.86,0 1768.53,458.34 2280.68,1163.12zm-2312.88 -1528.54c738.04,0 1336.33,-598.29 1336.33,-1336.33 0,-738.04 -598.29,-1336.33 -1336.33,-1336.33 -738.04,0 -1336.33,598.29 -1336.33,1336.33 0,738.04 598.29,1336.33 1336.33,1336.33z"/>
 </g>
</svg>
